<svg width="32" height="39" viewBox="0 0 32 39" fill="none" xmlns="http://www.w3.org/2000/svg">
<path d="M13.4536 1H6.39844" stroke="#4D9988" stroke-width="1.5" stroke-miterlimit="10" stroke-linecap="round"/>
<path d="M10.0184 37.8097C7.07361 37.8097 4.06748 37.8097 4.06748 37.8097C2.34969 37.8097 1 36.46 1 34.7422V7.80978C1 6.092 2.34969 4.74231 4.06748 4.74231H15.7852C17.503 4.74231 18.8527 6.092 18.8527 7.80978C18.8527 7.80978 18.8527 7.99385 18.8527 8.36195" stroke="#4D9988" stroke-width="1.5" stroke-miterlimit="10" stroke-linecap="round"/>
<path d="M26.46 14.8647L30.9998 19.4046" stroke="#4D9988" stroke-width="1.5" stroke-miterlimit="10" stroke-linecap="round"/>
<path d="M11.2455 14.8647L6.64429 19.4046" stroke="#4D9988" stroke-width="1.5" stroke-miterlimit="10" stroke-linecap="round"/>
<path d="M22.043 13.2698H15.6013" stroke="#4D9988" stroke-width="1.5" stroke-miterlimit="10" stroke-linecap="round"/>
<path d="M18.9142 13.2698V17.2575C16.3988 17.2575 13.8222 18.2391 11.859 20.1409C7.99395 24.0059 7.99395 30.2636 11.859 34.1286C15.724 37.9936 21.9816 37.9936 25.8467 34.1286C29.7117 30.2636 29.7117 24.0059 25.8467 20.1409C24.9878 19.282 24.0062 18.6072 22.9632 18.1164" stroke="#4D9988" stroke-width="1.5" stroke-miterlimit="10" stroke-linecap="round"/>
<path d="M18.6307 27.0803C19.7575 27.0803 20.6709 26.1669 20.6709 25.0402C20.6709 23.9134 19.7575 23 18.6307 23C17.504 23 16.5906 23.9134 16.5906 25.0402C16.5906 26.1669 17.504 27.0803 18.6307 27.0803Z" stroke="#4D9988" stroke-width="1.5" stroke-miterlimit="10" stroke-linecap="round"/>
<path d="M18.6307 32.2882C20.0836 32.2882 21.2614 31.1103 21.2614 29.6574C21.2614 28.2045 20.0836 27.0267 18.6307 27.0267C17.1778 27.0267 16 28.2045 16 29.6574C16 31.1103 17.1778 32.2882 18.6307 32.2882Z" stroke="#4D9988" stroke-width="1.5" stroke-miterlimit="10" stroke-linecap="round"/>
</svg>
