<svg width="32" height="32" viewBox="0 0 32 32" fill="none" xmlns="http://www.w3.org/2000/svg">
<path d="M6.6 31.05C6.25 31.05 5.85 31.05 5.85 31.05C3.2 31.05 1 28.95 1 26.35V5.70001C1 3.10001 3.2 1 5.85 1H14.15C16.8 1 19 3.10001 19 5.70001C19 5.70001 19 7.44999 19 9.89999" stroke="#4D9988" stroke-width="1.5" stroke-miterlimit="10" stroke-linecap="round"/>
<path d="M8.94995 26.05V18.7C8.94995 15.95 11.2 13.7 13.95 13.7H26C28.75 13.7 31 15.95 31 18.7V26.05C31 28.8 28.75 31.05 26 31.05H13.95C11.2 31.05 8.94995 28.8 8.94995 26.05Z" stroke="#4D9988" stroke-width="1.5" stroke-miterlimit="10" stroke-linecap="round"/>
<path d="M12 5H8" stroke="#4D9988" stroke-width="1.5" stroke-miterlimit="10" stroke-linecap="round"/>
<path d="M29 15.3L19.75 22.5L10.5 15.3" stroke="#4D9988" stroke-width="1.5" stroke-miterlimit="10" stroke-linecap="round"/>
</svg>
