<svg width="30" height="30" viewBox="0 0 30 30" fill="none" xmlns="http://www.w3.org/2000/svg">
<path d="M23.9998 6.46899H11.469C8.70757 6.46899 6.46899 8.70757 6.46899 11.469V23.9998C6.46899 26.7613 8.70757 28.9998 11.469 28.9998H23.9998C26.7613 28.9998 28.9998 26.7612 28.9998 23.9998V11.469C28.9998 8.70757 26.7612 6.46899 23.9998 6.46899Z" stroke="#4D9988" stroke-width="1.5" stroke-miterlimit="10" stroke-linecap="round" stroke-linejoin="round"/>
<path d="M13.5 15C14.3284 15 15 14.3284 15 13.5C15 12.6716 14.3284 12 13.5 12C12.6716 12 12 12.6716 12 13.5C12 14.3284 12.6716 15 13.5 15Z" fill="#4D9988"/>
<path d="M22.5 15C23.3284 15 24 14.3284 24 13.5C24 12.6716 23.3284 12 22.5 12C21.6716 12 21 12.6716 21 13.5C21 14.3284 21.6716 15 22.5 15Z" fill="#4D9988"/>
<path d="M13.5 24C14.3284 24 15 23.3284 15 22.5C15 21.6716 14.3284 21 13.5 21C12.6716 21 12 21.6716 12 22.5C12 23.3284 12.6716 24 13.5 24Z" fill="#4D9988"/>
<path d="M22.5 24C23.3284 24 24 23.3284 24 22.5C24 21.6716 23.3284 21 22.5 21C21.6716 21 21 21.6716 21 22.5C21 23.3284 21.6716 24 22.5 24Z" fill="#4D9988"/>
<path d="M7.5 7.5L2.5 2.5" stroke="#4D9988" stroke-width="1.5" stroke-miterlimit="10" stroke-linecap="round" stroke-linejoin="round"/>
<path d="M7.5 27L2.33603 21.4388C1.47726 20.514 1 19.2986 1 18.0365V6C1 3.23858 3.23858 1 6 1H18.4289C19.755 1 21.0268 1.52678 21.9645 2.46447L27 7.5" stroke="#4D9988" stroke-width="1.5" stroke-miterlimit="10" stroke-linecap="round" stroke-linejoin="round"/>
</svg>
