<svg width="32" height="32" viewBox="0 0 32 32" fill="none" xmlns="http://www.w3.org/2000/svg">
<path d="M5.10684 31.05C4.55593 31.05 4.20534 31.05 4.20534 31.05C3.15359 31.05 2.10184 30.4991 1.50083 29.4473C1.20033 28.8463 1 28.1452 1 27.444V15.1235C1 13.02 2.45242 11.3171 4.25543 11.3171H12.7195C14.5225 11.3171 15.975 13.02 15.975 15.1235" stroke="#4D9988" stroke-width="1.5" stroke-miterlimit="10" stroke-linecap="round" stroke-linejoin="round"/>
<path d="M16.0251 18.8297C16.0251 11.9683 16.0251 4.80635 16.0251 4.80635C16.0251 2.70284 17.4776 1 19.2806 1H27.7447C29.5477 1 31.0001 2.70284 31.0001 4.80635V27.394C31.0001 27.7446 30.95 28.0952 30.8499 28.4457C30.4492 29.9983 29.147 31 27.7447 31C27.7447 31 27.2438 31 26.3423 31" stroke="#4D9988" stroke-width="1.5" stroke-miterlimit="10" stroke-linecap="round" stroke-linejoin="round"/>
<path d="M5.90816 18.4792C6.65499 18.4792 7.26042 17.8737 7.26042 17.1269C7.26042 16.3801 6.65499 15.7747 5.90816 15.7747C5.16133 15.7747 4.55591 16.3801 4.55591 17.1269C4.55591 17.8737 5.16133 18.4792 5.90816 18.4792Z" fill="#4D9988"/>
<path d="M11.2673 18.4792C12.0141 18.4792 12.6195 17.8737 12.6195 17.1269C12.6195 16.3801 12.0141 15.7747 11.2673 15.7747C10.5205 15.7747 9.91504 16.3801 9.91504 17.1269C9.91504 17.8737 10.5205 18.4792 11.2673 18.4792Z" fill="#4D9988"/>
<path d="M26.1416 5.9082V17.177" stroke="#4D9988" stroke-width="1.5" stroke-miterlimit="10" stroke-linecap="round"/>
<path d="M20.9331 5.9082V17.1269" stroke="#4D9988" stroke-width="1.5" stroke-miterlimit="10" stroke-linecap="round"/>
<path d="M22.3856 31.0501V26.1419C22.3856 24.3389 20.9332 22.8865 19.1302 22.8865H12.369C10.5659 22.8865 9.11353 24.3389 9.11353 26.1419V31.0501" stroke="#4D9988" stroke-width="1.5" stroke-miterlimit="10" stroke-linecap="round"/>
<path d="M18.3792 26.9432V31" stroke="#4D9988" stroke-width="1.5" stroke-miterlimit="10" stroke-linecap="round"/>
</svg>
