<svg width="30" height="30" viewBox="0 0 30 30" fill="none" xmlns="http://www.w3.org/2000/svg">
<path d="M29 21.9533V24.3333C29 26.9 26.9 29 24.3333 29H5.66667C3.1 29 1 26.9 1 24.3333V5.66667C1 3.1 3.1 1 5.66667 1H24.3333C26.9 1 29 3.1 29 5.66667V8.04666" stroke="#4D9988" stroke-width="1.5" stroke-miterlimit="10" stroke-linecap="round"/>
<path d="M7.25342 8.04663H19.2468" stroke="#4D9988" stroke-width="1.5" stroke-miterlimit="10" stroke-linecap="round"/>
<path d="M22.8867 8.04663H29.0001" stroke="#4D9988" stroke-width="1.5" stroke-miterlimit="10" stroke-linecap="round"/>
<path d="M22.7471 6.08667V10.0533" stroke="#4D9988" stroke-width="1.5" stroke-miterlimit="10" stroke-linecap="round"/>
<path d="M7.25342 21.9534H19.2468" stroke="#4D9988" stroke-width="1.5" stroke-miterlimit="10" stroke-linecap="round"/>
<path d="M22.8867 21.9534H29.0001" stroke="#4D9988" stroke-width="1.5" stroke-miterlimit="10" stroke-linecap="round"/>
<path d="M22.7471 19.9467V23.9133" stroke="#4D9988" stroke-width="1.5" stroke-miterlimit="10" stroke-linecap="round"/>
<path d="M29.0001 15H17.0535" stroke="#4D9988" stroke-width="1.5" stroke-miterlimit="10" stroke-linecap="round"/>
<path d="M13.3668 15H7.25342" stroke="#4D9988" stroke-width="1.5" stroke-miterlimit="10" stroke-linecap="round"/>
<path d="M13.5066 12.9933V16.96" stroke="#4D9988" stroke-width="1.5" stroke-miterlimit="10" stroke-linecap="round"/>
</svg>
