<svg width="32" height="32" viewBox="0 0 32 32" fill="none" xmlns="http://www.w3.org/2000/svg">
<path d="M6.7982 24.5462C6.19316 23.8403 5.78979 22.8824 5.78979 21.8739V9.97479C5.78979 7.65546 7.70576 5.78992 9.97466 5.78992H21.8234C22.8318 5.78992 23.7394 6.14286 24.4453 6.69748" stroke="#4D9988" stroke-width="1.5" stroke-miterlimit="10" stroke-linecap="round"/>
<path d="M2.0084 19.7563C1.40336 19.0504 1 18.0924 1 17.084V5.18487C1 2.86555 2.91596 1 5.18487 1H17.084C18.0924 1 19 1.35294 19.7059 1.90756" stroke="#4D9988" stroke-width="1.5" stroke-miterlimit="10" stroke-linecap="round"/>
<path d="M26.8151 30.9496H14.9664C12.647 30.9496 10.7815 29.0336 10.7815 26.7647V14.916C10.7815 12.5966 12.6975 10.7311 14.9664 10.7311H26.8151C29.1344 10.7311 31 12.647 31 14.916V26.7647C31 29.084 29.1344 30.9496 26.8151 30.9496Z" stroke="#4D9988" stroke-width="1.5" stroke-miterlimit="10" stroke-linecap="round"/>
<path d="M20.8655 15.3698V20.8151" stroke="#4D9988" stroke-width="1.5" stroke-miterlimit="10" stroke-linecap="round"/>
<path d="M20.8655 26.3109C21.5059 26.3109 22.0251 25.7917 22.0251 25.1512C22.0251 24.5108 21.5059 23.9916 20.8655 23.9916C20.225 23.9916 19.7058 24.5108 19.7058 25.1512C19.7058 25.7917 20.225 26.3109 20.8655 26.3109Z" fill="#4D9988"/>
</svg>
