<svg width="30" height="29" viewBox="0 0 30 29" fill="none" xmlns="http://www.w3.org/2000/svg">
<path d="M24.1937 9.69336C26.8641 9.69336 29.0271 7.53038 29.0271 4.86003C29.0271 2.18969 26.8641 0 24.1937 0C21.5233 0 19.3603 2.16298 19.3603 4.83333C19.3603 7.50368 17.1973 9.66666 14.5269 9.66666C11.8565 9.66666 9.69349 7.50368 9.69349 4.83333C9.69349 2.16298 7.50378 0 4.83339 0C2.16301 0 0 2.16298 0 4.83333C0 7.50368 2.16301 9.66666 4.83339 9.66666C7.50378 9.66666 9.66679 11.8296 9.66679 14.5C9.66679 17.1703 11.8298 19.3333 14.5002 19.3333C17.1706 19.3333 19.3336 17.1703 19.3336 14.5C19.3336 11.8296 21.5233 9.69336 24.1937 9.69336Z" fill="#4D9988"/>
<path d="M4.83339 19.3334C2.16301 19.3334 0 21.4964 0 24.1667C0 26.8371 2.16301 29 4.83339 29C7.50378 29 9.66679 26.8371 9.66679 24.1667C9.66679 21.4964 7.50378 19.3334 4.83339 19.3334Z" fill="#4D9988"/>
<path d="M23.6752 19.3334C21.0048 19.3334 18.8418 21.4964 18.8418 24.1667C18.8418 26.8371 21.0048 29 23.6752 29C26.3456 29 28.5086 26.8371 28.5086 24.1667C28.5086 21.4964 26.3456 19.3334 23.6752 19.3334Z" fill="#4D9988"/>
</svg>
