<svg width="19" height="19" viewBox="0 0 19 19" fill="none" xmlns="http://www.w3.org/2000/svg">
<path d="M15.8219 6.33915C17.5682 6.33915 18.9828 4.92463 18.9828 3.17831C18.9828 1.43199 17.5682 0 15.8219 0C14.0756 0 12.661 1.41452 12.661 3.16085C12.661 4.90717 11.2465 6.32169 9.50012 6.32169C7.75378 6.32169 6.33924 4.90717 6.33924 3.16085C6.33924 1.41452 4.90723 0 3.16089 0C1.41454 0 0 1.41452 0 3.16085C0 4.90717 1.41454 6.32169 3.16089 6.32169C4.90723 6.32169 6.32177 7.73621 6.32177 9.48254C6.32177 11.2289 7.73631 12.6434 9.48266 12.6434C11.229 12.6434 12.6435 11.2289 12.6435 9.48254C12.6435 7.73621 14.0756 6.33915 15.8219 6.33915Z" fill="white"/>
<path d="M3.16089 12.6609C1.41454 12.6609 0 14.0754 0 15.8217C0 17.5681 1.41454 18.9826 3.16089 18.9826C4.90723 18.9826 6.32177 17.5681 6.32177 15.8217C6.32177 14.0754 4.90723 12.6609 3.16089 12.6609Z" fill="white"/>
<path d="M15.8219 12.6609C14.0756 12.6609 12.661 14.0754 12.661 15.8217C12.661 17.5681 14.0756 18.9826 15.8219 18.9826C17.5682 18.9826 18.9828 17.5681 18.9828 15.8217C18.9828 14.0754 17.5682 12.6609 15.8219 12.6609Z" fill="white"/>
</svg>
