<svg width="141" height="19" viewBox="0 0 141 19" fill="none" xmlns="http://www.w3.org/2000/svg">
<path d="M15.8219 6.33915C17.5682 6.33915 18.9828 4.92463 18.9828 3.17831C18.9828 1.43199 17.5682 0 15.8219 0C14.0756 0 12.661 1.41452 12.661 3.16085C12.661 4.90717 11.2465 6.32169 9.50012 6.32169C7.75378 6.32169 6.33924 4.90717 6.33924 3.16085C6.33924 1.41452 4.90723 0 3.16089 0C1.41454 0 0 1.41452 0 3.16085C0 4.90717 1.41454 6.32169 3.16089 6.32169C4.90723 6.32169 6.32177 7.73621 6.32177 9.48254C6.32177 11.2289 7.73631 12.6434 9.48266 12.6434C11.229 12.6434 12.6435 11.2289 12.6435 9.48254C12.6435 7.73621 14.0756 6.33915 15.8219 6.33915Z" fill="#4D9988"/>
<path d="M3.16089 12.6609C1.41454 12.6609 0 14.0754 0 15.8217C0 17.5681 1.41454 18.9826 3.16089 18.9826C4.90723 18.9826 6.32177 17.5681 6.32177 15.8217C6.32177 14.0754 4.90723 12.6609 3.16089 12.6609Z" fill="#4D9988"/>
<path d="M15.8219 12.6609C14.0756 12.6609 12.661 14.0754 12.661 15.8217C12.661 17.5681 14.0756 18.9826 15.8219 18.9826C17.5682 18.9826 18.9828 17.5681 18.9828 15.8217C18.9828 14.0754 17.5682 12.6609 15.8219 12.6609Z" fill="#4D9988"/>
<path d="M43.4666 5.65829C44.1302 6.37428 44.4795 7.38715 44.4795 8.71436V14.2502H42.0695V8.9763C42.0695 8.24285 41.8774 7.68402 41.5107 7.28237C41.144 6.88072 40.6201 6.68862 39.9739 6.68862C39.2928 6.68862 38.7515 6.89818 38.3673 7.3173C37.9656 7.73641 37.7735 8.36509 37.7735 9.1684V14.2153H35.3636V8.9763C35.3636 8.24285 35.1715 7.68402 34.8047 7.28237C34.438 6.88072 33.9141 6.68862 33.268 6.68862C32.5869 6.68862 32.0455 6.89818 31.6613 7.3173C31.2597 7.73641 31.0676 8.36509 31.0676 9.1684V14.2153H28.6401V4.71527H31.0676V6.51399C31.312 5.90277 31.7137 5.4138 32.2551 5.082C32.7964 4.7502 33.4251 4.57557 34.1586 4.57557C34.927 4.57557 35.5906 4.7502 36.1669 5.11693C36.7257 5.48366 37.1623 6.00755 37.4417 6.68862C37.7386 6.04248 38.1752 5.51858 38.7689 5.13439C39.3627 4.7502 40.0263 4.55811 40.7598 4.55811C41.8774 4.59303 42.7855 4.9423 43.4666 5.65829Z" fill="#171717"/>
<path d="M53.054 5.18664C53.7875 5.57083 54.3812 6.14712 54.8004 6.88057C55.2195 7.61403 55.4291 8.48719 55.4291 9.48259C55.4291 10.478 55.2195 11.3512 54.8004 12.0846C54.3812 12.8181 53.7875 13.3769 53.054 13.7786C52.3206 14.1802 51.4823 14.3723 50.5568 14.3723C49.6312 14.3723 48.7929 14.1802 48.0595 13.7786C47.326 13.3769 46.7323 12.8181 46.3131 12.0846C45.894 11.3512 45.6844 10.4955 45.6844 9.48259C45.6844 8.46973 45.894 7.61403 46.3131 6.88057C46.7323 6.14712 47.326 5.57083 48.0595 5.18664C48.7929 4.80245 49.6312 4.61035 50.5568 4.61035C51.4823 4.61035 52.3206 4.80245 53.054 5.18664ZM48.8453 7.40447C48.3738 7.87598 48.1468 8.57451 48.1468 9.48259C48.1468 10.3907 48.3738 11.0717 48.8453 11.5607C49.3168 12.0322 49.8931 12.2767 50.5568 12.2767C51.2378 12.2767 51.7967 12.0322 52.2682 11.5607C52.7397 11.0892 52.9667 10.3907 52.9667 9.48259C52.9667 8.57451 52.7397 7.89344 52.2682 7.40447C51.7967 6.93296 51.2204 6.68848 50.5568 6.68848C49.8931 6.70594 49.3168 6.93296 48.8453 7.40447Z" fill="#171717"/>
<path d="M65.034 5.67574C65.6802 6.39173 66.012 7.4046 66.012 8.71434V14.2502H63.602V8.97629C63.602 8.22537 63.4099 7.63162 63.0257 7.2125C62.6415 6.79339 62.1002 6.58383 61.4366 6.58383C60.7555 6.58383 60.1966 6.81085 59.795 7.24743C59.3759 7.70147 59.1838 8.33015 59.1838 9.16839V14.2153H56.7563V4.71526H59.1838V6.63622C59.4283 5.99008 59.8474 5.50111 60.4237 5.13438C61 4.76765 61.6636 4.59302 62.432 4.59302C63.4972 4.59302 64.3704 4.94228 65.034 5.67574Z" fill="#171717"/>
<path d="M74.604 5.18664C75.3374 5.57083 75.9312 6.14712 76.3503 6.88057C76.7694 7.61403 76.979 8.48719 76.979 9.48259C76.979 10.478 76.7694 11.3512 76.3503 12.0846C75.9312 12.8181 75.3374 13.3769 74.604 13.7786C73.8705 14.1802 73.0322 14.3723 72.1067 14.3723C71.1811 14.3723 70.3429 14.1802 69.6094 13.7786C68.8759 13.3769 68.2822 12.8181 67.8631 12.0846C67.4439 11.3512 67.2344 10.4955 67.2344 9.48259C67.2344 8.46973 67.4439 7.61403 67.8631 6.88057C68.2822 6.14712 68.8759 5.57083 69.6094 5.18664C70.3429 4.80245 71.1811 4.61035 72.1067 4.61035C73.0322 4.61035 73.8705 4.80245 74.604 5.18664ZM70.3778 7.40447C69.9063 7.87598 69.6793 8.57451 69.6793 9.48259C69.6793 10.3907 69.9063 11.0717 70.3778 11.5607C70.8493 12.0322 71.4256 12.2767 72.0892 12.2767C72.7703 12.2767 73.3291 12.0322 73.8006 11.5607C74.2722 11.0892 74.4992 10.3907 74.4992 9.48259C74.4992 8.57451 74.2722 7.89344 73.8006 7.40447C73.3291 6.93296 72.7528 6.68848 72.0892 6.68848C71.4256 6.70594 70.8493 6.93296 70.3778 7.40447Z" fill="#171717"/>
<path d="M93.1152 5.65829C93.7788 6.37428 94.1281 7.38715 94.1281 8.71436V14.2502H91.7181V8.9763C91.7181 8.24285 91.526 7.68402 91.1593 7.28237C90.7925 6.88072 90.2686 6.68862 89.6225 6.68862C88.9414 6.68862 88.4 6.89818 88.0158 7.3173C87.6142 7.73641 87.4221 8.36509 87.4221 9.1684V14.2153H85.0121V8.9763C85.0121 8.24285 84.82 7.68402 84.4533 7.28237C84.0866 6.88072 83.5627 6.68862 82.9165 6.68862C82.2354 6.68862 81.6941 6.89818 81.3099 7.3173C80.9082 7.73641 80.7161 8.36509 80.7161 9.1684V14.2153H78.2887V4.71527H80.7161V6.51399C80.9606 5.90277 81.3623 5.4138 81.9036 5.082C82.445 4.7502 83.0737 4.57557 83.8072 4.57557C84.5755 4.57557 85.2392 4.7502 85.8155 5.11693C86.3743 5.48366 86.8109 6.00755 87.0903 6.68862C87.3872 6.04248 87.8237 5.51858 88.4175 5.13439C89.0113 4.7502 89.6749 4.55811 90.4083 4.55811C91.526 4.59303 92.4516 4.9423 93.1152 5.65829Z" fill="#171717"/>
<path d="M104.693 9.9541H97.7256C97.7605 10.8098 97.9876 11.421 98.4067 11.8227C98.8258 12.2243 99.3497 12.4164 99.9784 12.4164C100.537 12.4164 101.009 12.2767 101.375 11.9973C101.742 11.7179 101.987 11.3512 102.091 10.8797H104.659C104.536 11.5433 104.257 12.137 103.855 12.6609C103.436 13.1848 102.912 13.6039 102.266 13.9008C101.62 14.1977 100.904 14.3548 100.118 14.3548C99.1925 14.3548 98.3717 14.1627 97.6383 13.7611C96.9223 13.3594 96.3635 12.8006 95.9618 12.0672C95.5427 11.3512 95.3506 10.478 95.3506 9.48259C95.3506 8.48719 95.5427 7.61403 95.9443 6.88057C96.346 6.14712 96.9048 5.57083 97.6208 5.18664C98.3368 4.80245 99.1751 4.61035 100.101 4.61035C101.044 4.61035 101.864 4.80245 102.563 5.18664C103.261 5.57083 103.803 6.11219 104.187 6.79326C104.571 7.47432 104.763 8.2427 104.763 9.11587C104.781 9.36035 104.746 9.63976 104.693 9.9541ZM101.725 7.10759C101.288 6.70594 100.747 6.51384 100.101 6.51384C99.4545 6.51384 98.8956 6.70594 98.4591 7.10759C98.005 7.50925 97.7605 8.103 97.7256 8.87138H102.336C102.371 8.103 102.161 7.50925 101.725 7.10759Z" fill="#171717"/>
<path d="M111.137 12.1547V14.2328H109.863C108.797 14.2328 107.977 13.9708 107.418 13.4644C106.859 12.9405 106.562 12.0848 106.562 10.8798V6.77598H105.235V4.71532H106.562V2.37524H108.989V4.71532H111.12V6.75852H108.989V10.9148C108.989 11.3688 109.077 11.7006 109.269 11.8752C109.443 12.0499 109.758 12.1547 110.194 12.1547H111.137Z" fill="#171717"/>
<path d="M116.272 5.11691C116.848 4.76765 117.512 4.59302 118.228 4.59302V7.19504H117.529C115.748 7.19504 114.875 8.01581 114.875 9.67482V14.2677H112.447V4.71526H114.875V6.53144C115.224 5.93769 115.696 5.46618 116.272 5.11691Z" fill="#171717"/>
<path d="M119.293 1.04788C119.572 0.803395 119.922 0.681152 120.376 0.681152C120.83 0.681152 121.179 0.803395 121.458 1.04788C121.738 1.29237 121.878 1.6067 121.878 2.00836C121.878 2.39255 121.738 2.70689 121.458 2.95137C121.179 3.19586 120.83 3.3181 120.376 3.3181C119.922 3.3181 119.572 3.19586 119.293 2.95137C119.014 2.70689 118.874 2.39255 118.874 2.00836C118.874 1.6067 119.014 1.29237 119.293 1.04788ZM121.563 4.71516V14.2326H119.136V4.71516H121.563Z" fill="#171717"/>
<path d="M130.679 5.60579C131.5 6.2694 132.006 7.17749 132.216 8.3126H129.649C129.544 7.80616 129.317 7.40451 128.95 7.1251C128.583 6.82822 128.112 6.68851 127.553 6.68851C126.907 6.68851 126.383 6.933 125.947 7.40451C125.51 7.87602 125.3 8.57454 125.3 9.5001C125.3 10.4082 125.51 11.1067 125.947 11.5957C126.383 12.0672 126.907 12.3117 127.553 12.3117C128.112 12.3117 128.583 12.172 128.95 11.8751C129.317 11.5782 129.544 11.1766 129.649 10.6876H132.216C132.006 11.8402 131.5 12.7308 130.679 13.3944C129.858 14.058 128.845 14.3898 127.606 14.3898C126.68 14.3898 125.859 14.1977 125.126 13.7961C124.41 13.3944 123.851 12.8356 123.449 12.1021C123.048 11.3687 122.855 10.513 122.855 9.5001C122.855 8.48723 123.048 7.63153 123.449 6.89807C123.851 6.16462 124.41 5.58833 125.126 5.20414C125.842 4.81995 126.68 4.62785 127.606 4.62785C128.845 4.61039 129.858 4.94219 130.679 5.60579Z" fill="#171717"/>
<path d="M139.568 5.48353C140.267 6.05981 140.703 6.84566 140.878 7.8236H138.608C138.52 7.36956 138.311 7.00283 137.996 6.72342C137.682 6.444 137.263 6.3043 136.739 6.3043C136.32 6.3043 136.006 6.40908 135.779 6.60117C135.552 6.79327 135.429 7.05522 135.429 7.38702C135.429 7.64897 135.517 7.85853 135.709 8.0157C135.883 8.17286 136.128 8.29511 136.39 8.39989C136.669 8.4872 137.053 8.59198 137.577 8.73169C138.293 8.88886 138.887 9.06349 139.341 9.23812C139.795 9.41275 140.179 9.69217 140.511 10.0764C140.843 10.4605 141 10.9844 141 11.6306C141 12.4514 140.686 13.0975 140.04 13.6039C139.411 14.1104 138.555 14.3548 137.473 14.3548C136.233 14.3548 135.237 14.0754 134.504 13.5166C133.753 12.9578 133.299 12.1719 133.142 11.1416H135.464C135.517 11.6131 135.726 11.9798 136.075 12.2418C136.425 12.5037 136.896 12.6435 137.473 12.6435C137.892 12.6435 138.206 12.5387 138.416 12.3466C138.625 12.1545 138.747 11.8925 138.747 11.5607C138.747 11.2813 138.66 11.0543 138.468 10.8971C138.276 10.7225 138.049 10.6003 137.769 10.4955C137.49 10.4082 137.088 10.3034 136.582 10.1637C135.866 10.0065 135.29 9.83187 134.853 9.6747C134.416 9.50007 134.032 9.23812 133.718 8.87139C133.404 8.50467 133.246 7.99823 133.246 7.35209C133.246 6.53132 133.561 5.85026 134.189 5.34382C134.818 4.81992 135.691 4.57544 136.809 4.57544C137.944 4.61037 138.87 4.88978 139.568 5.48353Z" fill="#171717"/>
</svg>
